<svg width="38" height="38" viewBox="0 0 38 38" fill="none" xmlns="http://www.w3.org/2000/svg">
<circle cx="19" cy="19" r="19" fill="#F0781D"/>
<path d="M24.9625 25.75C23.35 25.75 21.7782 25.3905 20.2473 24.6715C18.7162 23.9525 17.36 23.0025 16.1785 21.8215C14.997 20.6405 14.047 19.2842 13.3285 17.7527C12.61 16.2212 12.2505 14.6495 12.25 13.0375C12.25 12.8125 12.325 12.625 12.475 12.475C12.625 12.325 12.8125 12.25 13.0375 12.25H16.075C16.25 12.25 16.4063 12.3062 16.5438 12.4187C16.6813 12.5312 16.7625 12.675 16.7875 12.85L17.275 15.475C17.3 15.65 17.2968 15.8095 17.2653 15.9535C17.2338 16.0975 17.162 16.2255 17.05 16.3375L15.25 18.175C15.775 19.075 16.4313 19.9187 17.2188 20.7062C18.0062 21.4937 18.875 22.175 19.825 22.75L21.5875 20.9875C21.7 20.875 21.847 20.7907 22.0285 20.7347C22.21 20.6788 22.388 20.663 22.5625 20.6875L25.15 21.2125C25.325 21.25 25.4688 21.3345 25.5812 21.466C25.6937 21.5975 25.75 21.7505 25.75 21.925V24.9625C25.75 25.1875 25.675 25.375 25.525 25.525C25.375 25.675 25.1875 25.75 24.9625 25.75Z" fill="white"/>
</svg>
