<svg width="38" height="40" viewBox="0 0 38 40" fill="none" xmlns="http://www.w3.org/2000/svg">
<g clip-path="url(#clip0_969_41)">
<path d="M16.1665 36.4045L17.2892 39.5506H23.8006L24.6988 36.4045" stroke="#07119B" stroke-width="2"/>
<path fill-rule="evenodd" clip-rule="evenodd" d="M25.8732 26.236C28.6166 24.4907 30.437 21.4219 30.437 17.9276C30.437 12.4943 26.0361 8.08984 20.6074 8.08984C15.1787 8.08984 10.7778 12.4943 10.7778 17.9276C10.7778 21.2706 12.444 24.2242 14.9905 26.0019V33.3868H25.8732V26.236Z" fill="#FFBB00"/>
<path d="M18.4115 23.5954H18.8606V23.5494L18.8513 23.5044L18.4115 23.5954ZM17.0643 17.0786L17.2871 16.6884C17.1338 16.6007 16.9434 16.6111 16.8005 16.7149C16.6577 16.8186 16.5888 16.9966 16.6246 17.1696L17.0643 17.0786ZM20.4323 17.0786V16.6292H20.3263L20.2315 16.6766L20.4323 17.0786ZM24.0249 17.0786L24.4614 17.184C24.5024 17.014 24.4411 16.8357 24.3045 16.7269C24.1677 16.618 23.9803 16.5984 23.824 16.6766L24.0249 17.0786ZM22.4531 23.5954L22.0166 23.49L22.0041 23.542V23.5954H22.4531ZM18.8606 29.4381V23.5954H17.9625V29.4381H18.8606ZM18.8513 23.5044L17.5041 16.9875L16.6246 17.1696L17.9718 23.6865L18.8513 23.5044ZM16.8415 17.4688C17.4586 17.8217 19.0276 18.284 20.6332 17.4806L20.2315 16.6766C18.9631 17.3114 17.7179 16.9347 17.2871 16.6884L16.8415 17.4688ZM20.4323 17.528C21.1234 17.528 21.2785 17.741 21.834 17.9263C22.4184 18.1213 23.056 18.0659 24.2257 17.4806L23.824 16.6766C22.7484 17.2149 22.3756 17.1595 22.118 17.0736C21.8315 16.978 21.313 16.6292 20.4323 16.6292V17.528ZM23.5883 16.9732L22.0166 23.49L22.8897 23.7009L24.4614 17.184L23.5883 16.9732ZM22.0041 23.5954V29.4381H22.9022V23.5954H22.0041Z" fill="black"/>
<path d="M0.673828 31.2359L3.8173 28.0898L6.96076 31.2359L3.8173 34.382L0.673828 31.2359Z" stroke="#00BCC5" stroke-width="2"/>
<mask id="mask0_969_41" style="mask-type:luminance" maskUnits="userSpaceOnUse" x="8" y="4" width="26" height="33">
<path fill-rule="evenodd" clip-rule="evenodd" d="M27.3929 27.7067C30.9022 25.4742 33.2307 21.5486 33.2307 17.0787C33.2307 10.1285 27.6012 4.49438 20.6569 4.49438C13.7125 4.49438 8.08301 10.1285 8.08301 17.0787C8.08301 21.3551 10.2143 25.1333 13.4718 27.4073V36.8539H27.3929V27.7067Z" fill="#07119B"/>
</mask>
<g mask="url(#mask0_969_41)">
<path d="M27.3931 27.7067L26.9113 26.948L26.4949 27.2129V27.7067H27.3931ZM13.472 27.4072H14.3701V26.9383L13.9858 26.67L13.472 27.4072ZM13.472 36.8539H12.5739V37.7528H13.472V36.8539ZM27.3931 36.8539V37.7528H28.2912V36.8539H27.3931ZM32.3328 17.0786C32.3328 21.2283 30.1722 24.8735 26.9113 26.948L27.8749 28.4653C31.6325 26.0747 34.1291 21.8688 34.1291 17.0786H32.3328ZM20.6571 5.39321C27.1054 5.39321 32.3328 10.6249 32.3328 17.0786H34.1291C34.1291 9.63209 28.0974 3.59546 20.6571 3.59546V5.39321ZM8.98133 17.0786C8.98133 10.6249 14.2087 5.39321 20.6571 5.39321V3.59546C13.2167 3.59546 7.18506 9.63209 7.18506 17.0786H8.98133ZM13.9858 26.67C10.9588 24.5569 8.98133 21.0488 8.98133 17.0786H7.18506C7.18506 21.6612 9.47018 25.7095 12.9582 28.1445L13.9858 26.67ZM14.3701 36.8539V27.4072H12.5739V36.8539H14.3701ZM27.3931 35.955H13.472V37.7528H27.3931V35.955ZM26.4949 27.7067V36.8539H28.2912V27.7067H26.4949Z" fill="#07119B"/>
</g>
<path d="M29.1895 29.2134H12.125V30.1123H29.1895V29.2134Z" fill="#F48024"/>
<path d="M29.1895 32.8091H12.125V33.708H29.1895V32.8091Z" fill="#F48024"/>
<path d="M20.6569 0H19.7588V2.24719H20.6569V0Z" fill="#F48024"/>
<path d="M30.1396 2.62253L29.3618 2.1731L28.2391 4.11922L29.017 4.56866L30.1396 2.62253Z" fill="#F48024"/>
<path d="M36.224 10.3893L35.7749 9.61084L33.8304 10.7344L34.2795 11.5129L36.224 10.3893Z" fill="#F48024"/>
<path d="M4.19205 10.3893L4.64111 9.61084L6.58563 10.7344L6.13656 11.5129L4.19205 10.3893Z" fill="#F48024"/>
<path d="M3.52249 20.2755L3.29004 19.4072L5.45887 18.8256L5.69132 19.6939L3.52249 20.2755Z" fill="#F48024"/>
<path d="M37.3427 20.2755L37.5752 19.4072L35.4064 18.8256L35.1739 19.6939L37.3427 20.2755Z" fill="#F48024"/>
<path d="M9.82717 2.62253L10.605 2.1731L11.7276 4.11922L10.9498 4.56866L9.82717 2.62253Z" fill="#F48024"/>
</g>
<defs>
<clipPath id="clip0_969_41">
<rect width="37.7216" height="40" fill="white"/>
</clipPath>
</defs>
</svg>
