<svg width="40" height="40" viewBox="0 0 40 40" fill="none" xmlns="http://www.w3.org/2000/svg">
<g clip-path="url(#clip0_969_27)">
<path d="M10.0781 15.625C11.4042 15.625 12.676 15.0982 13.6137 14.1605M10.0781 15.625C8.75204 15.625 7.48027 15.0982 6.54259 14.1605M10.0781 15.625V19.375M13.6137 14.1605C14.5513 13.2229 15.0781 11.9511 15.0781 10.625M13.6137 14.1605L16.2648 16.8117M15.0781 10.625C15.0781 9.29892 14.5513 8.02715 13.6137 7.08947M15.0781 10.625H18.8281M13.6137 7.08947C12.676 6.15178 11.4042 5.625 10.0781 5.625M13.6137 7.08947L16.2648 4.43833M10.0781 5.625C8.75204 5.625 7.48027 6.15178 6.54259 7.08947M10.0781 5.625V1.875M6.54259 7.08947C5.60491 8.02715 5.07813 9.29892 5.07813 10.625M6.54259 7.08947L3.89146 4.43833M5.07813 10.625C5.07813 11.9511 5.60491 13.2229 6.54259 14.1605M5.07813 10.625H1.32812M6.54259 14.1605L3.89146 16.8117M9.24479 1.875H10.9115M15.6765 3.84833L16.8548 5.02667M18.8281 9.79167V11.4583M16.8548 16.2233L15.6765 17.4017M10.9115 19.375H9.24479M4.47979 17.4017L3.30146 16.2233M1.32812 11.4583V9.79167M3.30146 5.02667L4.47979 3.84833M30.2431 15.1667C31.3292 16.0877 32.2109 17.2255 32.8316 18.507C33.4524 19.7886 33.7986 21.1858 33.848 22.6089C33.8975 24.0321 33.649 25.4499 33.1187 26.7714C32.5883 28.093 31.7877 29.2892 30.7681 30.2833C28.7756 32.2283 26.1017 33.317 23.3173 33.317C20.5329 33.317 17.8589 32.2283 15.8665 30.2833C14.6726 29.115 13.7814 27.6735 13.2698 26.0833" stroke="#ED7218" stroke-width="4" stroke-linecap="round" stroke-linejoin="round"/>
<path d="M26.9179 18.4234C26.6335 18.7016 26.2515 18.8574 25.8537 18.8574C25.4559 18.8574 25.0739 18.7016 24.7896 18.4234L22.6662 16.3334C22.5266 16.1975 22.4157 16.035 22.3399 15.8555C22.2641 15.676 22.2251 15.4832 22.2251 15.2884C22.2251 15.0935 22.2641 14.9007 22.3399 14.7212C22.4157 14.5417 22.5266 14.3792 22.6662 14.2434L29.0529 7.97003C29.3377 7.69261 29.7195 7.53735 30.1171 7.53735C30.5146 7.53735 30.8965 7.69261 31.1812 7.97003L33.3096 10.0617C33.4492 10.1976 33.5601 10.3601 33.6359 10.5395C33.7116 10.719 33.7507 10.9119 33.7507 11.1067C33.7507 11.3015 33.7116 11.4944 33.6359 11.6738C33.5601 11.8533 33.4492 12.0158 33.3096 12.1517L26.9179 18.4234Z" stroke="#ED7218" stroke-width="4" stroke-linecap="round" stroke-linejoin="round"/>
<path d="M31.9466 8.72662L36.2633 4.40662M36.2633 4.40662L33.855 1.99829M36.2633 4.40662L38.6716 6.81496M9.66162 26.0833H18.0916M10.975 38.125H33.855M23.0166 33.3083V38.125" stroke="#ED7218" stroke-width="4" stroke-linecap="round" stroke-linejoin="round"/>
</g>
<defs>
<clipPath id="clip0_969_27">
<rect width="40" height="40" fill="white"/>
</clipPath>
</defs>
</svg>
