<svg width="38" height="38" viewBox="0 0 38 38" fill="none" xmlns="http://www.w3.org/2000/svg">
<circle cx="19" cy="19" r="19" fill="#F0781D"/>
<path d="M19 11.5C18.0151 11.5 17.0398 11.694 16.1299 12.0709C15.2199 12.4478 14.3931 13.0003 13.6967 13.6967C12.2902 15.1032 11.5 17.0109 11.5 19C11.5 20.9891 12.2902 22.8968 13.6967 24.3033C14.3931 24.9997 15.2199 25.5522 16.1299 25.9291C17.0398 26.306 18.0151 26.5 19 26.5C20.9891 26.5 22.8968 25.7098 24.3033 24.3033C25.7098 22.8968 26.5 20.9891 26.5 19C26.5 18.0151 26.306 17.0398 25.9291 16.1299C25.5522 15.2199 24.9997 14.3931 24.3033 13.6967C23.6069 13.0003 22.7801 12.4478 21.8701 12.0709C20.9602 11.694 19.9849 11.5 19 11.5ZM22.15 22.15L18.25 19.75V15.25H19.375V19.15L22.75 21.175L22.15 22.15Z" fill="white"/>
</svg>
