<svg width="19" height="18" viewBox="0 0 19 18" fill="none" xmlns="http://www.w3.org/2000/svg">
<path d="M8 2C5.829 2 5.556 2.00938 4.703 2.045C3.85 2.0825 3.269 2.20812 2.76 2.39375C2.22609 2.58202 1.74249 2.87734 1.343 3.25906C0.936076 3.63378 0.621107 4.0871 0.42 4.5875C0.222 5.06375 0.087 5.60937 0.048 6.40625C0.01 7.20781 0 7.46281 0 9.50094C0 11.5372 0.01 11.7922 0.048 12.5919C0.088 13.3906 0.222 13.9353 0.42 14.4125C0.625 14.9056 0.898 15.3237 1.343 15.7409C1.787 16.1581 2.233 16.415 2.759 16.6062C3.269 16.7919 3.849 16.9184 4.701 16.955C5.555 16.9906 5.827 17 8 17C10.173 17 10.444 16.9906 11.298 16.955C12.149 16.9175 12.732 16.7919 13.241 16.6062C13.7746 16.4179 14.2578 16.1226 14.657 15.7409C15.102 15.3237 15.375 14.9056 15.58 14.4125C15.777 13.9353 15.912 13.3906 15.952 12.5919C15.99 11.7922 16 11.5372 16 9.5C16 7.46281 15.99 7.20781 15.952 6.40719C15.912 5.60938 15.777 5.06375 15.58 4.5875C15.3789 4.08709 15.0639 3.63376 14.657 3.25906C14.2576 2.8772 13.774 2.58186 13.24 2.39375C12.73 2.20812 12.148 2.08156 11.297 2.045C10.443 2.00938 10.172 2 7.998 2H8.001H8ZM7.283 3.35188H8.001C10.137 3.35188 10.39 3.35844 11.233 3.395C12.013 3.42781 12.437 3.55062 12.719 3.65281C13.092 3.78875 13.359 3.95187 13.639 4.21438C13.919 4.47688 14.092 4.72625 14.237 5.07687C14.347 5.34031 14.477 5.73781 14.512 6.46906C14.551 7.25938 14.559 7.49656 14.559 9.49813C14.559 11.4997 14.551 11.7378 14.512 12.5281C14.477 13.2594 14.346 13.6559 14.237 13.9203C14.1087 14.246 13.904 14.5404 13.638 14.7819C13.358 15.0444 13.092 15.2066 12.718 15.3425C12.438 15.4456 12.014 15.5675 11.233 15.6013C10.39 15.6369 10.137 15.6453 8.001 15.6453C5.865 15.6453 5.611 15.6369 4.768 15.6013C3.988 15.5675 3.565 15.4456 3.283 15.3425C2.9355 15.2224 2.62113 15.0309 2.363 14.7819C2.09675 14.54 1.89172 14.2453 1.763 13.9194C1.654 13.6559 1.523 13.2584 1.488 12.5272C1.45 11.7369 1.442 11.4997 1.442 9.49625C1.442 7.49375 1.45 7.2575 1.488 6.46719C1.524 5.73594 1.654 5.33844 1.764 5.07406C1.909 4.72438 2.083 4.47406 2.363 4.21156C2.643 3.94906 2.909 3.78688 3.283 3.65094C3.565 3.54781 3.988 3.42594 4.768 3.39219C5.506 3.36031 5.792 3.35094 7.283 3.35V3.35188ZM12.271 4.59687C12.1449 4.59687 12.0201 4.62015 11.9036 4.66538C11.7872 4.71061 11.6813 4.77691 11.5922 4.86048C11.503 4.94405 11.4323 5.04327 11.3841 5.15246C11.3358 5.26165 11.311 5.37869 11.311 5.49688C11.311 5.61506 11.3358 5.7321 11.3841 5.84129C11.4323 5.95048 11.503 6.0497 11.5922 6.13327C11.6813 6.21684 11.7872 6.28314 11.9036 6.32837C12.0201 6.3736 12.1449 6.39687 12.271 6.39687C12.5256 6.39687 12.7698 6.30205 12.9498 6.13327C13.1299 5.96449 13.231 5.73557 13.231 5.49688C13.231 5.25818 13.1299 5.02926 12.9498 4.86048C12.7698 4.6917 12.5256 4.59687 12.271 4.59687ZM8.001 5.64875C7.45607 5.64078 6.91489 5.73452 6.40898 5.92451C5.90306 6.1145 5.44251 6.39694 5.05415 6.7554C4.66579 7.11385 4.35736 7.54116 4.14684 8.01243C3.93632 8.48371 3.8279 8.98953 3.8279 9.50047C3.8279 10.0114 3.93632 10.5172 4.14684 10.9885C4.35736 11.4598 4.66579 11.8871 5.05415 12.2455C5.44251 12.604 5.90306 12.8864 6.40898 13.0764C6.91489 13.2664 7.45607 13.3602 8.001 13.3522C9.07954 13.3364 10.1082 12.9237 10.865 12.203C11.6217 11.4824 12.0459 10.5117 12.0459 9.50047C12.0459 8.48921 11.6217 7.51851 10.865 6.79789C10.1082 6.07727 9.07954 5.66453 8.001 5.64875ZM8.001 6.99969C8.70833 6.99969 9.38669 7.26311 9.88685 7.73201C10.387 8.20091 10.668 8.83688 10.668 9.5C10.668 10.1631 10.387 10.7991 9.88685 11.268C9.38669 11.7369 8.70833 12.0003 8.001 12.0003C7.29367 12.0003 6.61531 11.7369 6.11515 11.268C5.61499 10.7991 5.334 10.1631 5.334 9.5C5.334 8.83688 5.61499 8.20091 6.11515 7.73201C6.61531 7.26311 7.29367 6.99969 8.001 6.99969Z" fill="#646CAF"/>
</svg>
