<svg width="38" height="38" viewBox="0 0 38 38" fill="none" xmlns="http://www.w3.org/2000/svg">
<circle cx="19" cy="19" r="19" fill="#F0781D"/>
<g opacity="0.8" clip-path="url(#clip0_969_196)">
<path d="M19 8.00045C18.1489 7.94557 17.2989 8.13562 16.5044 8.55844C15.7098 8.98127 14.9882 9.62755 14.3858 10.4559C13.7833 11.2843 13.3133 12.2765 13.0058 13.369C12.6983 14.4615 12.5601 15.6303 12.6 16.8005C12.6 19.5724 14.2 22.3005 15 23.4004C15.8 24.5005 19 30.0004 19 30.0004C19 30.0004 22.2 24.5005 23 23.4004C23.8 22.3005 25.4 19.5724 25.4 16.8005C25.4399 15.6303 25.3017 14.4615 24.9942 13.369C24.6867 12.2765 24.2166 11.2843 23.6142 10.4559C23.0118 9.62755 22.2902 8.98127 21.4956 8.55844C20.701 8.13562 19.851 7.94557 19 8.00045ZM19 20.3755C18.4858 20.3755 17.9831 20.1658 17.5555 19.773C17.1279 19.3801 16.7947 18.8218 16.5979 18.1685C16.4011 17.5153 16.3496 16.7965 16.4499 16.103C16.5503 15.4095 16.7979 14.7725 17.1615 14.2725C17.5251 13.7726 17.9884 13.4321 18.4927 13.2941C18.9971 13.1562 19.5199 13.227 19.995 13.4976C20.47 13.7682 20.8761 14.2264 21.1618 14.8143C21.4475 15.4022 21.6 16.0934 21.6 16.8005C21.6 17.2699 21.5327 17.7348 21.4021 18.1685C21.2714 18.6023 21.0799 18.9964 20.8385 19.3284C20.597 19.6603 20.3104 19.9237 19.995 20.1033C19.6795 20.283 19.3414 20.3755 19 20.3755Z" fill="white"/>
</g>
<defs>
<clipPath id="clip0_969_196">
<rect width="16" height="22" fill="white" transform="translate(11 8)"/>
</clipPath>
</defs>
</svg>
