<svg width="40" height="40" viewBox="0 0 40 40" fill="none" xmlns="http://www.w3.org/2000/svg">
<g style="mix-blend-mode:multiply">
<path d="M13.7234 26.2459C18.788 23.4558 21.193 15.7338 19.0952 8.99807C16.9974 2.26236 11.1911 -0.936242 6.1265 1.85377C1.06195 4.64378 -1.34308 12.3659 0.754733 19.1016C2.85255 25.8373 8.6588 29.0359 13.7234 26.2459Z" fill="#0088C5"/>
</g>
<path d="M33.145 13.7657C32.0076 13.7657 31.0825 12.5353 31.0825 11.0227C31.0825 9.51013 32.0076 8.27979 33.145 8.27979C34.2823 8.27979 35.2073 9.51013 35.2073 11.0227C35.2073 12.5353 34.2823 13.7657 33.145 13.7657ZM33.145 9.01076C32.3069 9.01076 31.6267 9.91543 31.6267 11.03C31.6267 12.1445 32.3069 13.0492 33.145 13.0492C33.983 13.0492 34.6632 12.1445 34.6632 11.03C34.6632 9.91543 33.983 9.01076 33.145 9.01076Z" fill="#D8CDE3"/>
<g style="mix-blend-mode:multiply">
<path d="M12.1945 41.9985L9.85449 38.8865L12.1945 35.7744L14.5344 38.8865L12.1945 41.9985ZM10.6218 38.8865L12.1945 40.978L13.7671 38.8865L12.1945 36.7949L10.6218 38.8865Z" fill="#00BCC5"/>
</g>
<g style="mix-blend-mode:multiply">
<path d="M27.905 26.9084H27.3608V39.6317H27.905V26.9084Z" fill="#FFBB00"/>
</g>
<g style="mix-blend-mode:multiply">
<path d="M32.4162 32.9014H22.8496V33.6251H32.4162V32.9014Z" fill="#FFBB00"/>
</g>
<g style="mix-blend-mode:multiply">
<path d="M30.8203 28.5173L24.0557 37.5141L24.4405 38.0258L31.2051 29.0291L30.8203 28.5173Z" fill="#FFBB00"/>
</g>
<g style="mix-blend-mode:multiply">
<path d="M24.4444 28.5154L24.0596 29.0271L30.8242 38.0238L31.209 37.5121L24.4444 28.5154Z" fill="#FFBB00"/>
</g>
<g style="mix-blend-mode:multiply">
<path d="M36.0402 2.10641C35.496 2.10641 34.9792 1.82415 34.5928 1.3103C34.0051 0.528668 33.0528 0.528668 32.4651 1.3103C31.6923 2.338 30.3428 2.338 29.57 1.3103C28.9823 0.528668 28.03 0.528668 27.4423 1.3103C26.6696 2.338 25.32 2.338 24.5473 1.3103C23.9596 0.528668 23.0073 0.528668 22.4196 1.3103L22.0332 0.796451C22.8331 -0.267437 24.1337 -0.267437 24.9282 0.796451C25.4941 1.54913 26.49 1.54913 27.056 0.796451C27.8287 -0.23125 29.1782 -0.23125 29.951 0.796451C30.5169 1.54913 31.5073 1.54913 32.0787 0.796451C32.8786 -0.267437 34.1737 -0.267437 34.9737 0.796451C35.5395 1.54913 36.5301 1.54913 37.1014 0.796451C37.9014 -0.267437 39.2018 -0.267437 39.9966 0.796451L39.6099 1.3103C39.0225 0.528668 38.0702 0.528668 37.4824 1.3103C37.0961 1.82415 36.5789 2.10641 36.035 2.10641H36.0402Z" fill="#010CA1"/>
</g>
<path d="M9.67492 33.0169C7.89004 33.0169 6.43164 31.0846 6.43164 28.7035C6.43164 27.3718 6.88332 26.1415 7.66691 25.3164L8.0043 25.8881C7.35131 26.5757 6.97581 27.6034 6.97581 28.7035C6.97581 30.6793 8.18388 32.2932 9.67492 32.2932C11.166 32.2932 12.374 30.6865 12.374 28.7035H12.9182C12.9182 31.0773 11.4653 33.0169 9.67492 33.0169Z" fill="#010CA1"/>
<path d="M9.67492 9.74167C7.89004 9.74167 6.43164 7.80928 6.43164 5.4282C6.43164 3.04711 7.8846 1.11475 9.67492 1.11475C11.4653 1.11475 12.9182 3.04711 12.9182 5.4282H12.374C12.374 3.4524 11.166 1.83848 9.67492 1.83848C8.18388 1.83848 6.97581 3.44517 6.97581 5.4282C6.97581 7.41124 8.18388 9.01791 9.67492 9.01791V9.74167Z" fill="#010CA1"/>
<path d="M3.47102 10.6176C3.32953 10.1254 3.25879 9.61155 3.25879 9.08325C3.25879 6.70938 4.71173 4.76978 6.50208 4.76978C6.57826 4.76978 6.649 4.76978 6.72518 4.77703L6.68711 5.50075C6.62725 5.50075 6.56738 5.49354 6.50208 5.49354C5.01648 5.49354 3.80297 7.10021 3.80297 9.08325C3.80297 9.52473 3.86284 9.95174 3.97709 10.3642L3.47102 10.6248V10.6176Z" fill="#010CA1"/>
<path d="M2.29578 17.927C1.43054 17.1165 0.913574 15.7993 0.913574 14.3952C0.913574 12.0214 2.36652 10.0818 4.15686 10.0818C4.90238 10.0818 5.63158 10.4292 6.21386 11.0588L5.87103 11.6161C5.39213 11.095 4.78265 10.8055 4.1623 10.8055C2.6767 10.8055 1.46319 12.4122 1.46319 14.3952C1.46319 15.5605 1.89309 16.6605 2.6114 17.3336L2.30122 17.927H2.29578Z" fill="#010CA1"/>
<path d="M3.43326 23.7316C2.33403 22.9934 1.65381 21.517 1.65381 19.8813C1.65381 17.5075 3.10676 15.5679 4.8971 15.5679V16.2916C3.4115 16.2916 2.19798 17.8983 2.19798 19.8813C2.19798 21.242 2.76393 22.4723 3.67815 23.0875L3.43326 23.7316Z" fill="#010CA1"/>
<path d="M6.34487 29.0728C4.55995 29.0728 3.10156 27.1405 3.10156 24.7594C3.10156 23.2395 3.71103 21.821 4.696 21.0466L4.97352 21.6691C4.15726 22.3132 3.64572 23.5001 3.64572 24.7594C3.64572 26.7352 4.8538 28.3491 6.34487 28.3491C6.45368 28.3491 6.56253 28.3418 6.67134 28.3202L6.73664 29.0366C6.60604 29.0584 6.47544 29.0656 6.34487 29.0656V29.0728Z" fill="#010CA1"/>
<path d="M15.612 33.0171C13.8271 33.0171 12.3687 31.0847 12.3687 28.7036V24.6145H12.9128V28.7036C12.9128 30.6794 14.1209 32.2933 15.612 32.2933C17.103 32.2933 18.3111 30.6867 18.3111 28.7036C18.3111 27.7555 18.039 26.8653 17.5383 26.1922L17.9247 25.6857C18.5233 26.4963 18.8498 27.5674 18.8498 28.7036C18.8498 31.0775 17.3968 33.0171 15.6065 33.0171H15.612Z" fill="#010CA1"/>
<path d="M12.9182 25.121H12.374V5.4282C12.374 3.05435 13.827 1.11475 15.6173 1.11475C17.4077 1.11475 18.8606 3.04711 18.8606 5.4282C18.8606 6.03612 18.7681 6.62236 18.5831 7.17238L18.0879 6.88289C18.2403 6.42695 18.3164 5.93483 18.3164 5.43545C18.3164 3.45964 17.1084 1.84571 15.6173 1.84571C14.1263 1.84571 12.9182 3.4524 12.9182 5.43545V25.1282V25.121Z" fill="#010CA1"/>
<path d="M21.8157 10.6174L21.3096 10.3569C21.4239 9.95162 21.4838 9.5174 21.4838 9.07593C21.4838 7.10014 20.2757 5.48622 18.7847 5.48622C18.7248 5.48622 18.6595 5.48622 18.5996 5.49342L18.5615 4.76971C18.6377 4.76971 18.7085 4.76245 18.7847 4.76245C20.5695 4.76245 22.0279 6.69485 22.0279 9.07593C22.0279 9.60423 21.9572 10.1253 21.8157 10.6102V10.6174Z" fill="#010CA1"/>
<path d="M22.991 17.927L22.6809 17.3336C23.3992 16.6605 23.8291 15.5605 23.8291 14.3952C23.8291 12.4194 22.621 10.8055 21.13 10.8055C20.33 10.8055 19.5791 11.2759 19.0621 12.0865L18.6431 11.6233C19.2635 10.6463 20.1668 10.0818 21.13 10.0818C22.9149 10.0818 24.3733 12.0141 24.3733 14.3952C24.3733 15.7993 23.8563 17.1165 22.991 17.927Z" fill="#010CA1"/>
<path d="M21.8594 23.7316L21.6145 23.0875C22.5287 22.4723 23.0946 21.242 23.0946 19.8813C23.0946 17.9056 21.8865 16.2916 20.3955 16.2916V15.5679C22.1804 15.5679 23.6388 17.5003 23.6388 19.8813C23.6388 21.517 22.9586 22.9934 21.8594 23.7316Z" fill="#010CA1"/>
<path d="M18.9426 29.0724C18.812 29.0724 18.6814 29.0652 18.5508 29.0435L18.6161 28.3269C18.7249 28.3415 18.8337 28.3559 18.9426 28.3559C20.4282 28.3559 21.6417 26.7492 21.6417 24.7662C21.6417 23.4707 21.1138 22.2693 20.265 21.6396L20.5316 21.01C21.5546 21.77 22.1859 23.2174 22.1859 24.7734C22.1859 27.1473 20.7329 29.0869 18.9426 29.0869V29.0724Z" fill="#010CA1"/>
<path d="M5.43599 17.5146C4.69591 16.4 4.44014 14.8874 4.75033 13.4617L5.27275 13.6643C5.01154 14.8513 5.22921 16.1105 5.84412 17.0369L5.43599 17.5146Z" fill="#010CA1"/>
<path d="M19.6662 14.866L19.122 14.7937C19.2581 12.9916 18.3547 11.3342 17.0215 10.9434L17.1412 10.2341C18.7465 10.7046 19.8294 12.6948 19.6662 14.866Z" fill="#010CA1"/>
<path d="M10.7253 23.1382L10.1811 23.0658C10.3172 21.2637 9.4138 19.6064 8.08057 19.2156L8.20029 18.5063C9.80562 18.9768 10.8885 20.967 10.7253 23.1382Z" fill="#010CA1"/>
<path d="M16.4502 26.851C16.3903 26.851 16.3304 26.851 16.2651 26.8437L16.3087 26.12C17.2011 26.2141 18.0011 25.4035 18.1806 24.2383L18.7139 24.3831C18.4963 25.8305 17.544 26.8582 16.4502 26.8582V26.851Z" fill="#010CA1"/>
<path d="M15.7749 20.5543C15.715 20.5543 15.6551 20.5543 15.5898 20.5471L15.6334 19.8234C16.5258 19.9174 17.3258 19.1068 17.5054 17.9417L18.0387 18.0864C17.821 19.5339 16.8687 20.5616 15.7749 20.5616V20.5543Z" fill="#010CA1"/>
<path d="M14.2895 7.67205C14.2297 7.67205 14.1698 7.67205 14.1045 7.66479L14.148 6.94108C15.0405 7.03516 15.8459 6.22457 16.02 5.05933L16.5533 5.2041C16.3356 6.65158 15.3833 7.67926 14.2895 7.67926V7.67205Z" fill="#010CA1"/>
<path d="M8.75531 14.9745C8.69544 14.9745 8.63561 14.9745 8.57031 14.9673L8.61382 14.2435C9.5063 14.3376 10.3062 13.527 10.4858 12.3618L11.0191 12.5066C10.8014 13.954 9.84912 14.9817 8.75531 14.9817V14.9745Z" fill="#010CA1"/>
<path d="M15.6175 14.7427C15.3454 14.3012 14.9645 14.0118 14.54 13.9176L14.6271 13.2012C15.1767 13.3242 15.6774 13.7078 16.0365 14.2795L15.6175 14.7427Z" fill="#010CA1"/>
<path d="M10.3333 6.43414C10.0612 5.99267 9.68031 5.70317 9.25586 5.60909L9.34292 4.89258C9.89253 5.01563 10.3932 5.39921 10.7523 5.97095L10.3333 6.43414Z" fill="#010CA1"/>
<path d="M9.147 26.5688C7.97704 26.5688 6.98663 25.4036 6.85059 23.862L7.38932 23.7751C7.49273 24.9549 8.24912 25.8451 9.147 25.8451V26.5688Z" fill="#010CA1"/>
</svg>
