<svg width="18" height="15" viewBox="0 0 18 15" fill="none" xmlns="http://www.w3.org/2000/svg">
<path d="M17.9991 1.78066C17.325 2.0863 16.6101 2.28702 15.878 2.37619C16.6496 1.90324 17.2271 1.1589 17.5028 0.281882C16.7787 0.723552 15.9849 1.03308 15.1575 1.20052C14.6017 0.591031 13.865 0.186817 13.062 0.0507149C12.2589 -0.0853868 11.4345 0.0542503 10.7169 0.447918C9.99925 0.841585 9.42862 1.46723 9.0937 2.22758C8.75879 2.98793 8.67835 3.84039 8.86489 4.65243C7.39648 4.57699 5.95997 4.18589 4.6486 3.5045C3.33724 2.82312 2.18035 1.86669 1.25304 0.697305C0.924805 1.27514 0.752315 1.93201 0.753238 2.60065C0.753238 3.91299 1.40493 5.07237 2.3957 5.75117C1.80937 5.73225 1.23594 5.56996 0.723214 5.27782V5.32489C0.723391 6.1989 1.01848 7.04597 1.55844 7.72245C2.0984 8.39893 2.85001 8.8632 3.68583 9.03654C3.14154 9.18772 2.57082 9.21001 2.01688 9.10171C2.25253 9.85403 2.71184 10.512 3.33049 10.9834C3.94914 11.4549 4.69615 11.7162 5.46693 11.7309C4.70088 12.3476 3.82374 12.8034 2.88569 13.0724C1.94763 13.3413 0.967047 13.4182 0 13.2985C1.68812 14.4112 3.65324 15.0019 5.66032 15C12.4536 15 16.1686 9.23204 16.1686 4.22976C16.1686 4.06685 16.1641 3.90213 16.1571 3.74103C16.8802 3.20538 17.5043 2.54184 18 1.78157L17.9991 1.78066Z" fill="#646CAF"/>
</svg>
